<?xml version="1.0" encoding="UTF-8"?>
<svg id="uuid-64df6cff-b42c-4e2d-8ca1-ce8b736dca02" data-name="Layer 1" xmlns="http://www.w3.org/2000/svg" viewBox="0 0 341.45 60.85">
  <path d="M1.59,46.97c-.29.48-.73.81-.99.72s-.52-.75-.57-1.48-.01-1.46.1-1.62.14-.44.07-.62-.06-1.66.03-3.27.23-3.06.3-3.22.09-.5.03-.76.18-2.71.52-5.44.74-5.27.89-5.63.19-.89.1-1.18,0-1.45.2-2.59.31-2.19.24-2.34,0-1.19.19-2.32.46-2.52.62-3.08l.13-.71.13-.71c.06-.31.3-.72.54-.93s.47-.39.5-.42.43-.39.82-.76,1.16-1.38,1.36-1.42.57-.15.83-.25.53-.31.61-.45-.65-.52-1.62-.83-1.84-.53-1.95-.49-.47-.13-.79-.37-1.32-.84-2.21-1.33S.19,3.55.36,2.29.85.11,1.09.25s.56.14.72,0,.92-.12,1.68.03,1.49.24,1.62.19.55,0,.93.13.79.33.91.44.51.2.88.2.93.1,1.26.22,4.03,1.51,6.85,2.67,9.22,5.88,9.3,6.05.23.34.35.35.77.56,1.44,1.21l.48.6.48.6c.39.66.85,1.28,1.02,1.38s.71.98,1.2,1.98l.25.85.25.85c.07.99.12,1.88.12,1.98s-.05.25-.1.35,0,.29.13.42.17,1.54.08,3.13l-.25,1.27-.25,1.27c-.44,1.26-.9,2.41-1.03,2.57s-.25.47-.27.69-.4,1.25-.85,2.28l-.49.79-.49.79c-.67.77-1.38,1.59-1.58,1.81s-.35.53-.35.69-.64,1.06-1.43,2.02-4.17,4.73-4.38,4.96.03.28.54.11l.52-.22.52-.22c.81-.41,1.44-.41,1.4,0s-.08.77-.1.79-.78.72-1.7,1.56-2.72,1.85-2.86,2.03-.79.68-1.44,1.12l-1.17.66-1.17.66c-.78.65-1.64,1.2-1.9,1.24s-.65.22-.86.4-1.32.77-2.45,1.3l-1.23.3c-1.24.3-2.44.46-3.61.46h-.18c-.4-.17-.76-.32-.8-.34s-.3-.25-.54-.48l-.15-.22-.15-.22c-.1-.28-.05-.66.11-.83s.89-1.04.99-1.17.34-.53.38-.72.73-.73,1.55-1.18,1.6-.78,1.74-.72.55-.12.92-.39l.39-.17c.39-.17.85-.3,1.37-.39.25-.31.52-.57.83-.77l.3-.2c.47-.17,2.32-1.29,4.1-2.5l.89-.76.89-.76c.58-.84,1.22-1.6,1.42-1.7s.56-.51.79-.93.66-.98.94-1.25.57-.69.62-.94.64-1.23,1.3-2.18l.52-.82.52-.82c.48-.87,1-1.71,1.17-1.86s.3-.41.3-.59.33-1.19.73-2.25l.18-.83c.18-.83.27-1.65.27-2.46,0-1.53-.33-3.02-.99-4.46l-.66-1.45c-1.24-1.49-2.4-2.81-2.57-2.93s-1.04-.84-1.91-1.6-6.55-3.99-6.99-4.22-1.44-.01-1.63.79-.4,1.54-.47,1.65-.13.36-.13.56-.07.58-.15.86-.27.71-.42.96-.22.52-.17.59-.26,1.83-.69,3.89-1.1,5.77-1.48,8.22-.84,4.69-1.03,4.97-.26.71-.17.96-.08,1.59-.39,2.98-.65,2.66-.76,2.83-.17.39-.13.51-.09.93-.29,1.82-.44,1.7-.56,1.8-.31.57-.44,1.04-.47,1.03-.76,1.23-.76.76-1.04,1.25Z" fill="#fff"/>
  <path d="M35.41,50.08c.09-.36.02-.67-.17-.69s-.45.01-.59.07-.46-.12-.72-.39-.44-1.91-.4-3.66.19-3.48.34-3.86.16-.87.03-1.08-.22-.67-.2-1.01.11-1.57.2-2.73.34-3.53.56-5.27.43-3.3.49-3.47.04-.46-.03-.66-.01-.74.13-1.21.24-1.03.2-1.25.13-1.25.37-2.31.48-2.05.52-2.21.02-.45-.07-.66.08-.86.35-1.45l.13-.47c.13-.47.2-.9.2-1.28,0-.2,0-.35-.02-.44v-.09c-.03-.1.1-.41.29-.69s.29-.68.24-.89.13-.99.42-1.74.69-1.47.89-1.62.48-.53.62-.86.34-.65.46-.72.31-.35.44-.62.81-.98,1.52-1.58,1.58-1.35,1.94-1.65.82-.78,1.01-1.04.61-.53.93-.59.75-.32.96-.59.92-.75,1.58-1.07,3.77-1.09,4.08-1.15.96-.09,1.07.02.58.08,1.04-.07,1.3-.27,1.87-.27,1.62.06,2.34.13,1.62.29,2,.49.88.53,1.11.74l.1.22c.1.22.15.55.15.98,0,.16-.03.53-.08,1.13l-.06.6c-.03.53-.14,1.23-.23,1.54s-.18.72-.2.89-.18.5-.35.72-.5.34-.72.27-.61-.1-.86-.07-.64-.11-.86-.34-.51-.4-.64-.4-.31-.01-.41-.03-.92-.14-1.48-.23-1.63-.17-1.8-.16l-.5.04-.51.05c-.44.03-1.32.13-1.97.22s-1.27.11-1.38.03-.36.05-.56.27-.52.34-.72.27-.64-.1-.96-.07-.87.23-1.21.42-.87.99-1.18,1.77-.68,1.57-.83,1.75-.25.59-.24.89-.22,1.53-.52,2.73-.65,2.39-.76,2.64-.2.69-.2.96-.11.81-.24,1.21-.3.82-.39.93-.15.38-.15.59-.24,1.38-.54,2.59-.14,2.15.35,2.07,1.28-.52,1.75-.99,1.06-.9,1.31-.96.61-.25.79-.42.57-.34.86-.35.7-.14.93-.27,1.1-.43,1.96-.66l.69-.11.68-.11c.74-.03,1.54-.15,1.77-.26s.81-.2,1.28-.2.97.05,1.11.1.46.06.72,0,.96.02,1.55.17,1.29.69,1.55,1.21.44,1.24.4,1.6-.17.75-.3.86-.21.31-.17.44-.05.8-.2,1.49l-.19.28c-.19.28-.48.42-.86.42-.2-.02-.42-.06-.66-.12l-.24-.06c-.42-.15-.98-.37-1.25-.5s-.78-.07-1.13.13-.84.35-1.08.33h-.2c-.2-.02-.53-.03-.98-.03-.56,0-1.09.02-1.58.07l-.49.05c-.52.1-1.11.09-1.29-.03s-.55-.05-.81.15-.98.43-1.6.49l-.56.11-.56.11c-.58.16-1.22.25-1.43.19s-.58.04-.84.22-.94.5-1.52.72-1.18,1.13-1.35,2.02-.35,1.72-.4,1.84-.04.33.03.45,0,.84-.15,1.58-.36,1.53-.46,1.75-.09.53,0,.69.06,1.22-.07,2.36-.3,2.64-.37,3.34.13,1.19.46,1.09,1.52-.18,2.66-.2,2.25.01,2.48.07.82,0,1.33-.13,1.22-.21,1.58-.17.76-.02.88-.13.9-.36,1.74-.56,1.71-.35,1.95-.35,1.4-.31,2.58-.69,2.48-.87,2.9-1.08l.3-.25.3-.25c.29-.35.64-.67.79-.73s.47.03.72.19.49.51.52.79-.06.68-.22.89-.38.64-.49.94-.45.78-.76,1.06-.69.51-.86.51-.38.17-.47.39-.93.77-1.87,1.25-1.84.84-2,.83-.54.17-.83.42-1.03.64-1.65.86-1.26.39-1.42.37-.51.16-.77.39-1.5.73-2.75,1.1l-.94.21-.94.21c-.91.1-1.74.13-1.85.07s-.54.01-.96.15-1.02.25-1.35.25-1.22-.03-2-.07l-.59-.13-.6-.13c-.61-.28-1.06-.67-1.01-.88s.18-.67.27-1.03Z" fill="#fff"/>
  <path d="M84.69,38.84c-.02.3.11.51.3.46s.38-.11.43-.13l.06-.03c.06-.03.1-.05.12-.05.11,0,.21.05.3.13l.09.09c.06.14.11.37.11.52s0,.34.02.43l.03.18.03.18c.03.18-.02.6-.1.93l-.17.19-.17.19c-.38.18-1.12.54-1.65.8s-1.03.54-1.11.62-.67.71-1.3,1.4l-.69.67-.68.67c-.97.89-1.88,1.66-2.03,1.72s-.39.22-.54.37-.91.73-1.7,1.29l-.64.43-.64.43c-.68.41-1.26.74-1.3.72s-.42.21-.85.52l-.42.22-.42.22c-.6.25-1.16.53-1.25.62s-.27.2-.39.24-.29.13-.37.2-.54.18-1.02.24l-.39.08-.39.08c-.39.13-.77.23-.85.21s-.2-.03-.25-.03-.57-.05-1.14-.12l-.59-.24-.6-.24c-.78-.47-1.49-1.02-1.59-1.21s-.19-.43-.2-.53l-.02-.15c-.02-.15-.03-.24-.03-.29,0-.2.02-.39.05-.56l.03-.17c.06-.16.11-.35.1-.44s.18-.45.43-.83l.82-.54.82-.54c1.21-.56,2.29-1.09,2.4-1.18s1.7-.86,3.52-1.7,3.42-1.59,3.54-1.65l.1-.03c.1-.03.2-.05.29-.05.2,0,.42.11.64.32.22.21.34.39.34.52,0,.18-.07.35-.22.52l-.15.17c-.26.16-.57.32-.68.35s-.32.16-.45.27-.54.26-.88.33l-.18.11-.18.11c-.14.23-.31.51-.38.61s-.1.21-.08.24.21.18.35.25h.09c.47,0,1.24-.46,2.31-1.38l1.07-.92c.29-.74.53-1.39.53-1.45v-.25c0-.07,0-.22.02-.32l.03-.1.03-.1c.06-.12.42-.37.78-.54l.31-.18.31-.18c.29-.2.55-.5.57-.67v-.15c.02-.15.03-.34.03-.59v-1.35c-2.59-3.11-4.95-5.91-5.23-6.22s-.88-1.03-.95-1.16-.24-.3-.39-.37-.47-.37-.72-.66-.55-.55-.66-.59-.59-.53-1.07-1.09l-.45-.49-.45-.49c-.51-.53-1.11-1.31-1.34-1.75s-.52-.84-.66-.89-.39-.28-.56-.49-.3-.45-.3-.52-.01-.23-.03-.34l-.06-.07-.06-.07c-.11-.04-.54-.9-.95-1.93l-.22-.82c-.22-.82-.34-1.54-.34-2.17,0-.13.02-.28.07-.44l.04-.16c.09-.17.14-.5.12-.72s.06-.65.19-.96l.24-.57.24-.57c.16-.44.45-.97.66-1.2s.42-.58.47-.79.76-1.39,1.57-2.61l.65-.73.65-.73c.75-.52,1.53-1.13,1.72-1.36l.22-.17.22-.17c.4-.19.75-.43.79-.52s.56-.51,1.16-.94,2.72-1.82,2.85-1.9.5-.28.7-.33.43-.21.52-.34,1.91-1,4.04-1.94l1.42-.52,1.42-.52c1.13-.25,2.13-.48,2.23-.5h.08c.08-.02.15-.03.22-.03.45,0,.83.25,1.13.74l.3.49c.08.47.15.88.15.92s-.02.05-.03.03-.03.2-.03.49-.02.61-.03.72-.04.22-.05.25-.01.19-.01.35v.13c.02.13.03.28.03.44,0,.13-.03.3-.1.51l-.07.2c-.13.28-.37.59-.54.69s-.37.26-.46.35-1.54,1.36-3.23,2.82l-1.65,1.12-1.65,1.12c-1.68.83-3.11,1.52-3.18,1.54h-.06c-.06.02-.13.03-.22.03-.16,0-.34-.05-.54-.15l-.2-.1c-.2-.19-.4-.44-.44-.56s-.05-.36-.03-.56l.07-.17c.07-.17.17-.34.3-.52l.18-.13c.27-.2,1.06-.88,1.74-1.5s.81-1.87.29-1.66l-.57.4-.57.4c-.81.76-1.58,1.41-1.72,1.45s-.31.18-.39.32-1.02,1.22-2.1,2.41l-.56,1.01c-.56,1.01-.84,2-.84,2.96,0,.38.07.79.22,1.21l.15.43c.28.54.58,1.16.66,1.36s.15.42.15.47v.25c0,.08.04.35.09.6l.19.22.19.22c.29.14,1.27,1.34,2.16,2.67l1.44,1.81,1.44,1.81c2.19,2.54,4.08,4.82,4.2,5.08l.16.19.16.19c.28.22.8.98,1.14,1.7l.17.64c.17.64.25,1.35.25,2.14,0,.38,0,.71-.02.99v.28Z" fill="#fff"/>
  <path d="M94.1,51.08c-.47.29-.88.5-1.23.62-.35.12-.68.19-.99.19-.25,0-.5-.2-.76-.59l-.26-.39c-.26-.27-.55-.86-.65-1.31s-.17-1.15-.15-1.57-.07-1-.2-1.3-.24-.98-.24-1.52v-3.84c0-.17.02-.94.05-1.72l.1-.54.1-.54c.19-.52.28-1.16.19-1.43s.06-2.68.34-5.36l.13-1.38.13-1.38c.15-1.36.33-2.92.4-3.47s.2-1.07.27-1.16.06-.81-.03-1.58l-.06-.61-.06-.61c-.03-.63-.27-1.18-.52-1.23s-.51-.41-.57-.8l-.03-.28c-.03-.28-.05-.52-.05-.72v-.13c.09-.5.19-1.01.21-1.13s.14-.56.23-.81.14-.69.1-.98.11-1.25.32-2.14.51-1.79.66-2,.29-.74.32-1.16.11-.95.19-1.17.94-2.16,1.65-3.55,3.09-2.9,3.23-2.86.39-.04.54-.17.69-.34,1.2-.47l.38-.07c.38-.07.71-.1.98-.1.22,0,.39.13.5.4l.11.27c.03.54-.27,4-.68,7.69l-.39,1.84-.39,1.84c-.63,1.45-1.09,2.81-1.04,3.01s-.03.95-.19,1.65-.42,1.93-.59,2.73-.29,1.67-.27,1.94-.06.84-.17,1.28-.19,1.06-.17,1.38-.06.89-.19,1.25-.22.87-.22,1.13-.08.93-.17,1.48-.26,2.05-.37,3.32-.19,2.57-.17,2.9-.14,1.53-.35,2.68l-.09,1.21c-.09,1.21-.13,2.75-.13,4.62,0,.34.02.73.07,1.18l.04.45c.12.72.22,1.45.22,1.64s.12.52.27.74.15.78,0,1.25l-.27.34c-.27.34-.71.69-1.31,1.04Z" fill="#fff"/>
  <path d="M123.84,60.05c-.32.49-.83.85-1.13.79s-.33-1.46-.07-3.12.44-3.21.4-3.45.15-2.42.42-4.85.56-4.66.66-4.97.11-.7.03-.88-.09-.78-.03-1.35.04-.97-.04-.9-1.11.99-1.99,1.78-2.93,2.71-3.07,2.78-.31.25-.39.39-.27.3-.44.35-1.4.8-2.74,1.66l-.96.48-.97.48c-1.03.32-2.09.67-2.37.78s-.68.11-.89,0-.56-.17-.77-.13-.46.02-.56-.03-.42,0-.72.13-1.03,0-1.62-.27-1.45-.8-1.92-1.16-1.22-1-1.65-1.42-1.04-1.55-1.35-2.53-.75-2.53-.98-3.45-.44-2-.45-2.38.01-.74.07-.79.06-.18,0-.27-.04-.31.03-.49.09-.56.03-.84.35-4.69.91-9.78l1.35-3.68,1.35-3.68c2.67-3.87,4.91-7.23,4.99-7.49s1.3-1.62,2.72-3.04,7.02-5.04,7.11-5.09.24-.09.32-.07.37-.16.64-.39,1.13-.58,1.91-.78l.82-.1.82-.1c1.15-.03,2.41-.05,2.79-.05s.94.11,1.25.24.69.22.86.2,1.12.55,2.12,1.27l.53.52c.53.52.92,1.04,1.16,1.58.54.45.95.97,1.23,1.55l.28.58c.13.79.36,1.57.51,1.74s.38.79.51,1.38.35,1.21.49,1.38.31.63.39,1.03-.31,1.22-.86,1.84-2.84,2.89-2.88,2.91-.27.1-.52.17l-.17.03c-.17.03-.33.05-.49.05-.43,0-.76-.13-1.01-.39l-.25-.26c-.1-.48-.3-1.52-.43-2.32s-.24-1.54-.24-1.65-.1-1.03-.21-2.04l-.43-.84-.43-.84c-1.27-1.51-2.43-2.87-2.59-3.03s-.47-.32-.69-.35-.56-.16-.76-.27-.47-.16-.62-.1-.33.1-.4.1-1.52.26-3.21.57l-1.56,1.13-1.56,1.13c-1.5,2.02-2.92,3.85-3.14,4.07s-.43.56-.47.76-.35.82-.69,1.38-.71,1.15-.83,1.3-.26.52-.32.83-.3,1.05-.53,1.66l-.15.33-.15.33c-.17.33-.34.75-.38.94s-.23.88-.42,1.54l-.24.8-.24.8c-.12.44-.28.89-.35,1s-.18.51-.24.89-.38,1.91-.73,3.41l-.17,1.33c-.17,1.33-.25,2.67-.25,4.04,0,.72.02,1.36.07,1.94l.04.57c.09.55.16,1.14.16,1.31s.11.47.24.66.46.87.72,1.52.52,1.33.56,1.52.85.87,1.8,1.53l.63.29c.63.29,1.2.44,1.72.44.65,0,1.66-.32,3.02-.96l1.36-.64c1.21-.94,2.29-1.76,2.4-1.84s.29-.34.4-.59.69-.92,1.28-1.48,1.23-1.04,1.42-1.06.43-.27.54-.56.32-.54.45-.56.25-.24.25-.49.37-.89.82-1.42,2.14-2.46,2.3-2.64.79-.67,1.2-.86l.29-.09c.29-.09.57-.13.84-.13.58,0,1.13.13,1.63.4l.51.27c.45.52.9,1.09.99,1.28s.09.81,0,1.4-.22,1.25-.29,1.48-.1.6-.07.83-.34,2.1-.83,4.18-.94,3.97-1.01,4.21-.33,1.19-.57,2.11-.51,1.91-.59,2.21-.15.7-.15.89-.1.75-.22,1.22l-.18.46-.18.46c-.23.5-.43,1.06-.43,1.24s-.33,1.71-.72,3.39l-.51.64-.5.64c-.99.29-2.07.92-2.39,1.41Z" fill="#fff"/>
  <path d="M149.38,33.61c-.06-.27-.39-1.2-.74-2.07l-.39-1.21-.39-1.21c-.37-.65-1.01-2.01-1.43-3.03s-.79-2.07-.82-2.34l-.12-.16-.12-.16c-.27-.12-.52-.06-.53.12s-.03.39-.02.46l.02.11c.02.11.03.19.03.24,0,.25-.05.5-.15.76l-.1.26c-.25.37-.5.87-.56,1.12s-.13.69-.17.97l-.07.29-.07.29c-.11.36-.26,1.05-.34,1.53s-.17.9-.2.93-.14.42-.22.87l-.1.36-.1.36c-.16.38-.36.9-.46,1.17s-.36,1.26-.59,2.21-.48,2.03-.56,2.41-.2.88-.27,1.11-.17.57-.2.76-.28.99-.54,1.79l-.27,1.15-.27,1.15c-.24.8-.53,1.59-.64,1.75s-.26.46-.33.66l-.06.25-.06.25c-.07.49-.13,1.03-.13,1.2s-.02.41-.03.54-.18.6-.19.63-.11.29-.18.51-.29.78-.47,1.23-.42,1.05-.52,1.33-.27.85-.38,1.28l-.19.27-.19.27c-.35.2-.68.37-.74.36l-.07-.02c-.07-.02-.11-.03-.13-.03-.11,0-.22.06-.34.19l-.11.12c-.12.24-.31.46-.41.48s-.34-.03-.52-.12-.32-.85-.3-1.68.13-1.77.26-2.09l.04-.2c.04-.2.07-.42.07-.64v-.2c-.06-.33-.11-.63-.12-.66s.07-.22.19-.4.41-1.3.66-2.49.42-2.33.38-2.53l-.02-.11c-.02-.11-.03-.2-.03-.27,0-.18.03-.35.08-.51l.06-.16c.11-.17.2-.38.2-.45s.03-.46.07-.85l.15-.56c.15-.56.22-.99.22-1.28,0-.16-.01-.29-.03-.39l-.02-.1c0-.08.05-.4.12-.7l.06-.48.06-.48c.16-.3.36-.9.43-1.34s.13-.87.13-.96.01-.36.03-.59l.06-.25.06-.25c.11-.29.2-.69.2-.88s.11-.97.25-1.72.25-1.46.25-1.58.01-.48.03-.81l.06-.3.06-.3c.11-.38.2-.77.2-.88s.01-.43.03-.72l.06-.2.06-.2c.11-.2.23-.45.26-.56s.05-.32.03-.49-.06-.49-.1-.71v-.27c0-.2.06-.49.19-.88l.12-.38c.22-.49.35-1,.28-1.13s.03-1,.2-1.94.33-1.73.35-1.77.03-.25.03-.47.21-.95.48-1.61l.15-.6.15-.59c.04-.7.15-1.57.24-1.93s.12-1.09.07-1.62-.15-1.18-.21-1.46v-.12c-.02-.12-.03-.24-.03-.35,0-.45.12-.96.35-1.53l.24-.57c.42-.66.83-1.23.91-1.26s.29-.07.45-.07h.72c.23,0,.55-.04.71-.09l.18-.05c.18-.04.43-.09.74-.13h.4c.65.3,1.31.61,1.48.71s.65-.04.87-.39.6-.9.86-1.23.63-.62.83-.64.43-.06.53-.1l.15-.06c.15-.06.26-.1.35-.12.13,0,.29.03.47.08l.18.06c.22.09.48.22.59.3s.17.49.14.93l-.12.37-.12.37c-.27.47-.55,1.05-.6,1.28s-.24.58-.41.77l-.08.16c-.08.16-.12.34-.12.54,0,.11,0,.2.02.25v.06c.03.11-.06.58-.19,1.04s-.28.93-.34,1.03-.1.23-.1.29-.01.23-.03.39l-.06.17-.06.17c-.11.21-.21.59-.23.84s.07.8.21,1.22.63,1.77.67,1.86.11.44.13.65.13.48.25.59.37.69.56,1.3.41,1.23.49,1.4l.04.15.04.15c.01.21.02.45.02.54s.1.25.22.35.48.84.79,1.63.57,1.65.57,1.89.2,1,.45,1.68.47,1.48.49,1.77l.08.18.08.18c.19.2.62,1.18.97,2.18s.62,1.9.62,2,.03.49.06.86l.12.27.12.27c.26.24.63.79.84,1.23s.46,1.18.57,1.65l.26.63.26.63c.4.77.74,1.5.74,1.63s.08.37.17.54l.08.08c.08.08.23.17.45.29.09.38.23.75.42,1.1l.19.35c.39.45.78.95.87,1.12s.34-.3.54-1.04.45-1.44.56-1.55.15-.36.12-.56.1-1.19.31-2.21l.22-.95.22-.95c.3-1.08.54-2.07.52-2.2s.1-.8.27-1.48.29-1.37.27-1.52.1-1.26.25-2.48l.1-1.06.1-1.06c.06-1.18.12-2.23.12-2.33s.01-.45.03-.76l.07-.28.07-.28c.13-.3.2-.72.15-.93l-.03-.17c-.03-.17-.05-.32-.05-.46s.02-.27.07-.4l.04-.13c.09-.17.17-.36.2-.44v-.07c.02-.07.03-.18.03-.34,0-.13-.03-.29-.1-.47l-.07-.18c-.09-.16-.11-1.04-.03-1.96s.17-1.77.2-1.9-.03-.52-.16-.88l-.04-.2c-.04-.2-.07-.4-.07-.61,0-.22.03-.48.1-.76l.07-.28c.13-.37.39-1.33.57-2.13s.46-1.59.61-1.76l.07-.15c.07-.15.1-.3.1-.45,0-.04-.01-.11-.03-.2l-.02-.09c-.04-.19.18-1.05.49-1.92s.59-1.75.61-1.97.21-.78.42-1.25l.63-.54.63-.54c.97-.52,1.9-.93,2.07-.91s.3.14.3.27,0,.39-.02.57l-.03.12-.03.12c-.06.15-.06.38,0,.53l.03.12c.03.12.05.25.05.39,0,.18-.01.33-.03.44l-.02.11c-.04.14-.15,1.21-.25,2.36s-.23,2.36-.3,2.66-.09.74-.03.96.04.72-.03,1.09-.22,1.77-.32,3.08-.23,2.51-.29,2.66-.07.39-.03.54.02.79-.03,1.42-.17,1.36-.26,1.61l-.04.19c-.05.19-.07.37-.07.52,0,.18,0,.33.02.46v.12c.03.13-.18,2.53-.46,5.33l-.21,1.85-.21,1.85c-.08.51-.23,1.08-.33,1.26l-.04.19c-.04.19-.07.39-.07.59,0,.18,0,.31.02.39v.08c.03.1-.1,1.07-.29,2.16s-.37,2.03-.4,2.09-.05.25-.03.42.03.34.02.35-.15.77-.31,1.68-.54,2.84-.57,3.5l-.1.45-.1.45c-.19.46-.44,1.08-.56,1.38l-.07.29-.07.29c-.02.3-.23,1.06-.47,1.68s-.57,1.29-.72,1.48-.33.48-.39.62-.42.43-.8.63l-.33.12-.33.12c-.35.09-.84.28-1.09.43s-.8.38-1.23.51-.85.27-.94.3h-.34c-.49,0-.93-.21-1.31-.62-.38-.42-.73-1.05-1.04-1.9-.54-.9-1.07-1.87-1.6-2.91l-.53-1.04c-.61-1.4-1.22-2.68-1.36-2.85s-.46-.83-.72-1.48-.58-1.32-.71-1.48-.3-.89-.38-1.61l-.15-.45-.15-.45c-.26-.38-.74-1.21-1.07-1.84s-.63-1.37-.69-1.63Z" fill="#fff"/>
  <path d="M186.16,30.54c.13-.51-.14-.41-.59.22s-1.07,1.13-1.36,1.1l-.26-.09-.26-.09c-.2-.14-.37-.61-.38-1.06s.08-.93.2-1.08.2-.55.17-.89.88-2.33,2.02-4.41,2.25-4.25,2.46-4.8.48-1.21.59-1.45.22-.63.24-.86.28-1.25.59-2.26.65-2.02.76-2.24.23-.65.27-.96.41-1.3.83-2.21,1.07-2.07,1.45-2.58.79-1.15.91-1.42.43-.63.69-.81.75-.49,1.09-.69,1.01-.33,1.48-.28l.29.18c.29.18.44.42.44.71v.16c-.19.41-.37.82-.42.9s-.2.47-.29.77-.52,1.24-.96,2.07-.52,1.46-.19,1.38.71-.27.83-.44.42-.48.66-.69.71-.47,1.03-.56l.18-.35.18-.35c.2-.21,1-.79,1.77-1.3s1.48-.97,1.57-1.03.98-.69,1.73-1.21h.47c.09,0,.2,0,.32.02h.12c.13.03.51-.04.85-.15s.99-.2,1.45-.2,3.33.82,6.4,1.83l2.58,3.65,2.58,3.65c.71,4.88,1.29,8.96,1.29,9.09s-.05.33-.1.45-.1.52-.1.86-.04,1.37-.08,2.29l-.16.76-.16.76c-.28.82-.56,1.55-.62,1.63s-.09.35-.07.62-.08.71-.21.98-1.18,2.26-1.86,3.51-1.99,3.23-2.17,3.38-.34.38-.34.52-.39.59-.88,1.01-.92.97-.98,1.23-1.02,1.46-2.14,2.68-2.2,2.41-2.4,2.66l-.25.16-.25.16c-.38.15-.86.49-1.05.74s-1.35,1.23-2.57,2.17l-1.06.61-1.06.61c-1.2.43-2.25.74-2.35.71s-.21.05-.27.19-.56.48-1.12.75l-.62.12c-.62.12-1.43.19-2.44.19-1.64,0-2.9-.15-3.77-.45l-.88-.3c-.41-.6-1-1.2-1.31-1.34l-.2-.21-.2-.21c-.19-.41-.97-1.62-1.74-2.68l-.45-1.5c-.45-1.5-.67-3.22-.67-5.15,0-.85.03-1.8.08-2.83l.06-1.03c.11-1.43.26-2.81.33-3.06s.1-.64.07-.88.04-.84.17-1.35ZM195.11,16.07c-.81.96-1.87,4.02-2.36,6.79s-.97,5.25-1.06,5.51-.14.62-.1.79.04,1.53,0,3.02-.11,2.89-.17,3.13-.06.5,0,.57.42,2.21.81,4.76l.61,1.56.61,1.56c.91.84,1.8,1.64,1.97,1.79s.44.24.59.2.39-.06.54-.06l.21.02c.21.02.38.03.49.03,1.91,0,3.77-.57,5.58-1.7l1.81-1.13c2.05-2.28,4.15-4.79,4.66-5.59s1.35-2.13,1.88-2.96l.35-.8.35-.8c.28-.96.6-1.86.71-2s.19-.43.17-.64.23-1.53.56-2.93l.17-1.04c.17-1.04.25-1.94.25-2.68,0-.31-.02-.71-.07-1.18l-.04-.47c-.12-.89-.21-1.87-.19-2.19s-.29-1.18-.69-1.92l-.64-1.48-.64-1.48c-.9-1.09-1.73-2.12-1.85-2.29s-.4-.36-.62-.44-1.01-.48-1.75-.9l-.67-.19c-.67-.19-1.43-.29-2.26-.29-.16,0-.39.02-.69.07l-.3.05c-.71.12-1.4.32-1.53.43s-.64.35-1.13.52-1.02.44-1.18.59-.45.32-.66.37-1.17.86-2.14,1.79l-.78.81-.77.81Z" fill="#e21d39"/>
  <path d="M252.5,38.84c-.02.3.11.51.3.46s.38-.11.43-.13l.06-.03c.06-.03.09-.05.12-.05.11,0,.21.05.3.13l.09.09c.06.14.11.37.11.52s0,.34.02.43l.03.18.03.18c.03.18-.02.6-.1.93l-.17.19-.17.19c-.38.18-1.12.54-1.65.8s-1.03.54-1.11.62-.67.71-1.3,1.4l-.68.67-.69.67c-.97.89-1.88,1.66-2.03,1.72s-.39.22-.54.37-.91.73-1.7,1.29l-.64.43-.64.43c-.68.41-1.26.74-1.3.72s-.42.21-.85.52l-.42.22-.42.22c-.6.25-1.16.53-1.25.62s-.27.2-.39.24-.29.13-.37.2-.54.18-1.02.24l-.39.08-.39.08c-.39.13-.77.23-.85.21s-.2-.03-.25-.03-.57-.05-1.14-.12l-.59-.24-.6-.24c-.78-.47-1.49-1.02-1.59-1.21s-.19-.43-.2-.53l-.02-.15c-.02-.15-.03-.24-.03-.29,0-.2.02-.39.05-.56l.03-.17c.06-.16.11-.35.1-.44s.18-.45.43-.83l.82-.54.82-.54c1.21-.56,2.29-1.09,2.4-1.18s1.7-.86,3.52-1.7,3.42-1.59,3.54-1.65l.1-.03c.1-.03.2-.05.29-.05.2,0,.42.11.64.32.22.21.34.39.34.52,0,.18-.07.35-.22.52l-.15.17c-.26.16-.57.32-.68.35s-.32.16-.46.27-.54.26-.88.33l-.18.11-.18.11c-.14.23-.31.51-.38.61s-.1.21-.08.24.21.18.35.25h.09c.47,0,1.24-.46,2.31-1.38l1.07-.92c.29-.74.53-1.39.53-1.45v-.25c0-.07,0-.22.02-.32l.03-.1.03-.1c.06-.12.42-.37.78-.54l.32-.18.31-.18c.29-.2.54-.5.57-.67v-.15c.02-.15.03-.34.03-.59v-1.35c-2.59-3.11-4.95-5.91-5.23-6.22s-.88-1.03-.95-1.16-.24-.3-.39-.37-.47-.37-.72-.66-.55-.55-.66-.59-.59-.53-1.07-1.09l-.45-.49-.45-.49c-.51-.53-1.11-1.31-1.34-1.75s-.52-.84-.66-.89-.39-.28-.56-.49-.3-.45-.3-.52-.01-.23-.03-.34l-.06-.07-.06-.07c-.11-.04-.54-.9-.95-1.93l-.22-.82c-.22-.82-.34-1.54-.34-2.17,0-.13.02-.28.07-.44l.04-.16c.09-.17.14-.5.12-.72s.07-.65.19-.96l.24-.57.24-.57c.16-.44.45-.97.66-1.2s.42-.58.47-.79.76-1.39,1.57-2.61l.65-.73.65-.73c.75-.52,1.53-1.13,1.72-1.36l.22-.17.22-.17c.4-.19.75-.43.79-.52s.56-.51,1.16-.94,2.72-1.82,2.85-1.9.5-.28.7-.33.43-.21.52-.34,1.91-1,4.04-1.94l1.42-.52,1.42-.52c1.13-.25,2.13-.48,2.23-.5h.08c.08-.02.15-.03.22-.03.45,0,.83.25,1.13.74l.3.49c.08.47.15.88.15.92s-.02.05-.03.03-.03.2-.03.49-.02.61-.03.72-.04.22-.05.25-.01.19-.01.35v.13c.02.13.03.28.03.44,0,.13-.03.3-.1.51l-.07.2c-.13.28-.37.59-.54.69s-.37.26-.45.35-1.54,1.36-3.23,2.82l-1.65,1.12-1.65,1.12c-1.68.83-3.11,1.52-3.18,1.54h-.06c-.06.02-.13.03-.22.03-.16,0-.34-.05-.54-.15l-.2-.1c-.2-.19-.4-.44-.44-.56s-.05-.36-.03-.56l.07-.17c.07-.17.17-.34.3-.52l.18-.13c.27-.2,1.06-.88,1.74-1.5s.81-1.87.29-1.66l-.57.4-.57.4c-.81.76-1.58,1.41-1.72,1.45s-.31.18-.39.32-1.02,1.22-2.1,2.41l-.56,1.01c-.56,1.01-.84,2-.84,2.96,0,.38.07.79.22,1.21l.15.43c.28.54.58,1.16.66,1.36s.15.42.15.47v.25c0,.08.04.35.1.6l.19.22.19.22c.29.14,1.27,1.34,2.16,2.67l1.44,1.81,1.44,1.81c2.19,2.54,4.08,4.82,4.2,5.08l.16.19.16.19c.28.22.8.98,1.14,1.7l.17.64c.17.64.25,1.35.25,2.14,0,.38,0,.71-.02.99v.28Z" fill="#fff"/>
  <path d="M256.68,30.54c.13-.51-.14-.41-.59.22s-1.07,1.13-1.36,1.1l-.26-.09-.26-.09c-.2-.14-.37-.61-.38-1.06s.08-.93.2-1.08.2-.55.17-.89.88-2.33,2.02-4.41,2.25-4.25,2.46-4.8.48-1.21.59-1.45.22-.63.24-.86.28-1.25.59-2.26.65-2.02.76-2.24.23-.65.27-.96.41-1.3.83-2.21,1.07-2.07,1.45-2.58.79-1.15.91-1.42.43-.63.69-.81.75-.49,1.1-.69,1.01-.33,1.48-.28l.29.18c.29.18.44.42.44.71v.16c-.19.41-.37.82-.42.9s-.2.47-.29.77-.52,1.24-.96,2.07-.52,1.46-.19,1.38.7-.27.83-.44.42-.48.66-.69.71-.47,1.03-.56l.18-.35.18-.35c.2-.21,1-.79,1.77-1.3s1.48-.97,1.57-1.03.98-.69,1.74-1.21h.47c.09,0,.2,0,.32.02h.12c.13.03.51-.04.85-.15s.99-.2,1.45-.2,3.33.82,6.4,1.83l2.58,3.65,2.58,3.65c.71,4.88,1.29,8.96,1.29,9.09s-.05.33-.1.45-.1.52-.1.86-.04,1.37-.08,2.29l-.16.76-.16.76c-.28.82-.56,1.55-.62,1.63s-.09.35-.07.62-.08.71-.21.98-1.18,2.26-1.86,3.51-1.99,3.23-2.17,3.38-.34.38-.34.52-.39.59-.88,1.01-.92.97-.98,1.23-1.02,1.46-2.14,2.68-2.2,2.41-2.4,2.66l-.25.16-.25.16c-.38.15-.85.49-1.05.74s-1.35,1.23-2.57,2.17l-1.06.61-1.06.61c-1.2.43-2.25.74-2.35.71s-.21.05-.27.19-.56.48-1.12.75l-.62.12c-.62.12-1.43.19-2.44.19-1.64,0-2.9-.15-3.77-.45l-.88-.3c-.41-.6-1-1.2-1.31-1.34l-.2-.21-.2-.21c-.19-.41-.97-1.62-1.74-2.68l-.45-1.5c-.45-1.5-.67-3.22-.67-5.15,0-.85.03-1.8.08-2.83l.06-1.03c.11-1.43.26-2.81.33-3.06s.1-.64.07-.88.04-.84.17-1.35ZM265.63,16.07c-.81.96-1.87,4.02-2.36,6.79s-.97,5.25-1.06,5.51-.14.62-.1.79.04,1.53,0,3.02-.11,2.89-.17,3.13-.06.5,0,.57.42,2.21.81,4.76l.61,1.56.61,1.56c.91.84,1.79,1.64,1.97,1.79s.44.24.59.2.39-.06.54-.06l.21.02c.21.02.38.03.49.03,1.91,0,3.77-.57,5.58-1.7l1.81-1.13c2.05-2.28,4.15-4.79,4.66-5.59s1.35-2.13,1.88-2.96l.35-.8.35-.8c.28-.96.6-1.86.71-2s.19-.43.17-.64.23-1.53.56-2.93l.17-1.04c.17-1.04.25-1.94.25-2.68,0-.31-.02-.71-.07-1.18l-.05-.47c-.12-.89-.21-1.87-.19-2.19s-.29-1.18-.69-1.92l-.64-1.48-.64-1.48c-.9-1.09-1.73-2.12-1.85-2.29s-.4-.36-.62-.44-1.01-.48-1.75-.9l-.67-.19c-.67-.19-1.43-.29-2.26-.29-.16,0-.39.02-.69.07l-.3.05c-.71.12-1.4.32-1.53.43s-.64.35-1.13.52-1.02.44-1.18.59-.45.32-.66.37-1.17.86-2.14,1.79l-.78.81-.77.81Z" fill="#fff"/>
  <path d="M296.34,55.98c-.38.45-1.18.65-1.77.44s-1.26-1.82-1.47-3.56l-.11-1.76-.11-1.76c-.03-2.23-.06-4.44-.06-4.91s.06-1.02.13-1.21.06-.57-.03-.83-.15-1.15-.13-1.97.08-1.58.13-1.67.07-.38.03-.64-.02-.68.03-.93.04-.75-.03-1.11-.12-1.31-.1-2.11-.12-1.39-.3-1.31-.51.17-.72.2-.64.13-.94.2-.65-.02-.76-.2.06-.72.39-1.2.68-1.12.79-1.45.62-.84,1.13-1.15,1.02-2.1,1.13-4l.13-1.36.13-1.36c.2-1.36.42-2.62.47-2.8s.07-.75.03-1.25.29-2.54.74-4.54l.19-.86.19-.86c.15-.61.5-1.43.79-1.83s1.21-1.77,2.05-3.05l1.3-1.16,1.3-1.16c1.9-1.13,3.57-2.05,3.72-2.03s.4-.03.56-.1.72-.23,1.25-.34,1.12-.16,1.31-.1.49.03.66-.07.64-.21,1.06-.27.88-.03,1.03.07.41.08.59-.03,1.24-.22,2.36-.24,2.32.31,2.66.72.61,1.34.59,2.06-.06,1.41-.08,1.55-.05.45-.05.69-.18.9-.41,1.46l-.21.43-.21.43c-.24.41-.65.59-.9.38s-.94-.48-1.53-.62-1.23-.34-1.42-.45-.46-.13-.61-.03-.89.2-1.65.24-1.43.02-1.48-.03-.2-.04-.32.03-1.29.38-2.59.69l-.64.36-.64.36c-.42.64-1.01,1.66-1.31,2.27s-.6,1.22-.66,1.35-.13.39-.17.57-.25,1.49-.47,2.9-.56,3.43-.76,4.5-.52,2.22-.72,2.56-.28.74-.17.89.17.5.13.79.54.32,1.28.07,1.45-.44,1.58-.42.37-.1.54-.27.83-.39,1.48-.49,1.4-.26,1.67-.35,1.1-.3,1.84-.47,1.64-.26,2-.2.85,0,1.09-.13,1.85-.16,3.57-.07l.93.33c.93.33,1.4.8,1.4,1.43,0,.16,0,.26-.02.32v.06c-.03.05-.07.58-.08,1.17s-.06,1.39-.1,1.77-.23.93-.42,1.23-.58.46-.86.37-1.35-.26-2.38-.37-2.03-.28-2.22-.37-.54-.09-.76,0-.58.17-.79.17-1.3.03-2.42.07l-.83.15-.83.15c-.84.3-1.78.49-2.08.43s-.65.03-.76.2-.39.4-.62.49-.58.13-.77.09l-.17-.02c-.17-.02-.37-.03-.59-.03-.43,0-.8.12-1.11.35l-.32.24c-.23.44-.47,1.25-.53,1.82s-.25,1.29-.42,1.62-.25.79-.17,1.04.1,1.21.03,2.14-.21,1.97-.32,2.31-.17.83-.13,1.08-.05,1.88-.2,3.62-.3,3.34-.34,3.55-.02.51.03.66.09.98.07,1.85-.08,1.67-.13,1.79-.04.32.03.45.12.55.1.91-.34,1.03-.72,1.48Z" fill="#fff"/>
  <path d="M328.04,9.75c.13-.58.05-1.1-.17-1.14l-.21-.02-.21-.02c-.41,0-.82-.06-.91-.11s-.23-.07-.3-.03-.19.22-.25.4l-.1.06c-.1.06-.31.1-.62.12-.2,0-.37,0-.5-.02h-.13c-.17-.03-.37,0-.46.05s-.28.09-.44.07-.52.1-.8.26l-.36.11-.36.11c-.51.09-1.02.13-1.14.09s-.33,0-.47.1-.52.24-.85.33l-.73.18-.73.18c-.57.18-1.15.39-1.28.47l-.08.02c-.08.02-.15.03-.22.03-.16,0-.29-.08-.39-.24l-.1-.16c-.05-.28-.09-.69-.1-.9s.06-.5.15-.63l.06-.09c.06-.09.09-.16.12-.2v-.13c-.04-.07-.04-.2,0-.29s.35-.36.37-.37,0-.14-.03-.29.04-.72.17-1.28.34-1.17.46-1.36.46-1.11.47-1.13.27-.33.58-.7l.39-.18.39-.18c.61-.05,1.3-.17,1.53-.26s1.15-.24,2.04-.34,1.66-.17,1.72-.17.23.01.39.02l.11.04.11.05c.1.09.41.03.67-.12l.28-.08.28-.08c.41-.02,1.65-.09,2.75-.14s2.14-.1,2.3-.09l.25.02.56.05c.27.07.5.12.53.11s.28-.06.52-.12h.16c.22.11.42.22.46.25s.32.06.54.02.6-.04.85-.01l.21.04.21.05c.45.1.95.19,1.12.19s.58,0,.91.02l.27.03c.27.03.53.08.78.15.18.13.35.25.5.34.16.09.27.13.34.13s.14-.03.22-.1c.08-.07.14-.12.18-.17.07-.02.13-.04.2-.05s.13-.02.2-.02c.38,0,.66.21.84.64l.18.43c.05.93.03,1.89-.04,2.12s-.13.51-.12.62l.02.2c.07.7.1,1.18.1,1.45,0,.2-.05.35-.15.45s-.25.15-.46.15c-.07,0-.13,0-.2-.02-.07-.01-.19-.05-.37-.12-.43-.09-.92-.17-1.48-.24s-1.39-.12-2.49-.17c-.18-.04-.33-.11-.45-.19l-.12-.08c-.11-.11-.34-.09-.51.06l-.15.07c-.15.07-.32.11-.52.13-.25-.02-.54-.04-.88-.05h-.34c-.78-.01-1.45.03-1.48.08s-.19.15-.34.2-.03.18.25.29.66.35.83.56.5.48.74.61.51.71.61,1.29l.13.36.13.36c.26.36.47.8.47.97s-.01.68-.03,1.12l-.06.38-.06.38c-.11.42-.24.87-.3,1s-.07.49-.03.79-.1,1.19-.3,1.97-.45,1.53-.56,1.67-.14.39-.08.56-.08.94-.3,1.72-.37,1.46-.34,1.52-.18,1.11-.49,2.34-.56,2.32-.56,2.41-.15.61-.34,1.15-.32,1.08-.3,1.2v.1c.02.1.03.2.03.29,0,.11-.02.24-.07.39l-.04.15c-.12.26-.19.53-.16.59s-.13,1.84-.38,3.95l-.15,1-.15,1c-.19.79-.47,1.59-.62,1.77l-.09.18c-.09.18-.13.35-.13.51,0,.05.03.19.1.42l.07.24c.06.21-.06,1.37-.25,2.56l-.09,1.04-.09,1.04c-.02,1.1-.08,2.08-.11,2.17s-.02.27.03.4.12.37.14.54v.13c.02.13.03.31.03.54,0,.43-.07.77-.2,1.03l-.13.26c-.37.31-.79.55-.93.53s-.34.13-.45.32-.26.38-.34.42-.23.04-.34,0-.3-.04-.42,0-.48-.11-.79-.34l-.13-.13-.13-.13c-.09-.15-.21-.52-.25-.83s.01-.76.13-1.01.1-.71-.05-1.02l-.07-.26c-.07-.26-.1-.53-.1-.83-.09-.25-.16-.47-.2-.66l-.05-.19c-.01-.22,0-.79.01-1.26s.08-.97.13-1.09.07-.37.02-.54l-.02-.08c-.02-.08-.03-.14-.03-.19,0-.09.01-.18.03-.27l.02-.09c0-.06-.05-.27-.12-.47s-.12-.77-.1-1.28.1-1.1.19-1.32l.05-.18c.04-.18.07-.34.07-.47,0-.16-.01-.32-.03-.49l-.02-.17c-.04-.18-.06-.8-.04-1.38s.12-1.34.22-1.68l.04-.36c.04-.36.07-.8.07-1.31,0-.16-.01-.39-.03-.71l-.02-.31c0-.23.06-.7.16-1.03s.17-.9.17-1.26.05-1.04.1-1.52.17-.98.26-1.12l.04-.12c.04-.12.07-.27.07-.45s0-.32-.02-.42v-.1c-.03-.1,0-.83.08-1.61l.07-1.03.13-1.95c.19-.93.36-1.77.39-1.87s.05-.33.05-.51.06-.58.13-.89.15-.6.16-.62.24-.41.44-.77v-.16s-.02-.12-.05-.22l-.03-.1c-.06-.12-.13-.44-.15-.71s.12-1.38.3-2.46.46-2.12.61-2.31l.07-.15c.07-.15.1-.27.1-.39s-.02-.25-.05-.4l-.03-.16c-.06-.21-.01-.86.12-1.44Z" fill="#fff"/>
</svg>