<?xml version="1.0" encoding="UTF-8"?>
<svg id="uuid-5c657288-bd64-4979-8771-3ba203f04aa0" data-name="uuid-be999b19-075b-4272-bea5-b16b49ee815f" xmlns="http://www.w3.org/2000/svg" viewBox="0 0 1920 100">
  <path d="M1529.89,0h5.33c-1.79,0-3.57,0-5.33,0Z" fill="#011d40"/>
  <path d="M851.96,71.41c41.47,3.64,87.34,5.25,139.72,3.58,45.41-1.45,83.43-4.96,116.98-9.72C1254.49,44.59,1315.56.36,1529.89,0H0v91.76c65.23-25.49,167.3-59.31,295.45-75.49,252.33-31.86,350.01,36.98,556.51,55.14Z" fill="none"/>
  <path d="M1535.23,0c1.95,0,3.92,0,5.89.02,161.9.86,293.86,25.57,378.88,45.87V0h-384.77Z" fill="none"/>
  <path d="M1535.23,0h-5.33c-214.33.35-275.4,44.59-421.23,65.27-33.55,4.76-71.57,8.27-116.98,9.72-52.38,1.67-98.25.06-139.72-3.58C645.46,53.25,547.78-15.59,295.45,16.27,167.3,32.45,65.23,66.27,0,91.76v8.24h1920v-54.11C1834.98,25.59,1703.02.88,1541.12.02c-1.98-.01-3.94-.02-5.89-.02Z" fill="#011d40"/>
</svg>