<?xml version="1.0" encoding="UTF-8"?>
<svg id="uuid-d2e10754-a121-48c5-8104-72f71fe722a0" data-name="Ñëîé 1" xmlns="http://www.w3.org/2000/svg" viewBox="0 0 859.84 910.53">
  <path d="M303.71,297.07l150,150,150-150-150-150-150,150ZM566.21,297.07l-112.5,112.5-112.5-112.5,112.5-112.5,112.5,112.5Z" fill="#2679bd" opacity=".75"/>
  <path d="M103.71,627.68l100,100,100-100-100-100-100,100ZM278.71,627.68l-75,75-75-75,75-75,75,75Z" fill="#2679bd" opacity=".75"/>
  <path d="M103.71,727.68l100,100,100-100-100-100-100,100ZM278.71,727.68l-75,75-75-75,75-75,75,75Z" fill="#2679bd"/>
  <path d="M309.84,627.68l150,150,150-150-150-150-150,150ZM572.34,627.68l-112.5,112.5-112.5-112.5,112.5-112.5,112.5,112.5Z" fill="#e31e3b" opacity=".75"/>
  <polygon points="203.71 839.82 415.85 627.68 203.71 415.55 0 619.27 0 636.1 203.71 839.82" fill="none"/>
  <polygon points="187.5 250 0 62.5 0 437.5 187.5 250" fill="none"/>
  <polygon points="0 0 0 62.5 187.5 250 0 437.5 0 500 250 250 0 0" fill="#2679bd"/>
  <polygon points="486.56 627.68 203.71 344.84 0 548.56 0 619.27 203.71 415.55 415.85 627.68 203.71 839.82 0 636.1 0 706.81 203.71 910.53 486.56 627.68" fill="#e31e3b"/>
  <rect x="33.75" y="33.75" width="159.1" height="159.1" transform="translate(-46.93 113.3) rotate(-45)" fill="none"/>
  <polygon points="312.36 226.57 462.36 76.57 386.6 .8 238.13 .8 162.36 76.57 312.36 226.57" fill="none"/>
  <polygon points="509.84 143.34 659.84 293.34 809.84 143.34 667.3 .8 652.38 .8 509.84 143.34" fill="none"/>
  <polygon points="462.36 76.57 312.36 226.57 162.36 76.57 238.13 .8 188.13 .8 112.36 76.57 312.36 276.57 512.36 76.57 436.6 .8 386.6 .8 462.36 76.57" fill="#2679bd"/>
  <polygon points="667.3 .8 809.84 143.34 659.84 293.34 509.84 143.34 652.38 .8 602.38 .8 459.84 143.34 659.84 343.34 859.84 143.34 717.3 .8 667.3 .8" fill="#2679bd"/>
  <rect x="33.75" y="33.75" width="159.1" height="159.1" transform="translate(-46.93 113.3) rotate(-45)" fill="none"/>
  <polygon points="113.3 .8 225.8 113.3 113.3 225.8 .8 113.3 113.3 .8 75.8 .8 0 76.61 0 150 113.3 263.3 263.3 113.3 150.8 .8 113.3 .8" fill="#2679bd" opacity=".75"/>
  <rect x="393.2" y="34.14" width="159.1" height="159.1" transform="translate(58.08 367.58) rotate(-45)" fill="none"/>
  <path d="M435.63.8l-112.88,112.88,150,150,150-150L509.86.8h-74.23ZM472.75,226.19l-112.5-112.5L472.75,1.19l112.5,112.5-112.5,112.5Z" fill="#2679bd" opacity=".75"/>
</svg>