<svg xmlns="http://www.w3.org/2000/svg" fill-rule="evenodd" stroke-linejoin="round" stroke-miterlimit="2" clip-rule="evenodd" viewBox="0 0 64 64" id="workflow">
  <g transform="translate(2.182)">
    <path fill="#ffe077" fill-rule="nonzero" d="M28.99,17.42C26.06,16.23 23.99,13.36 23.99,10C23.99,5.27 28.09,1.51 32.92,2.05C36.53,2.46 39.48,5.36 39.93,8.95C40.41,12.75 38.23,16.1 35,17.42L28.99,17.42Z" transform="translate(-2.182)"></path>
    <path fill="#ffc244" fill-rule="nonzero" d="M28.688,2.718C29.461,2.572 30.274,2.537 31.108,2.63C34.718,3.04 37.668,5.94 38.118,9.53C38.598,13.33 36.418,16.68 33.188,18L30.188,18C33.418,16.68 35.598,13.33 35.118,9.53C34.693,6.134 32.03,3.355 28.688,2.718Z" transform="translate(-.37 -.58)"></path>
    <rect width="8" height="8" x="2" y="26" fill="#fb4455" transform="translate(-2.182)"></rect>
    <rect width="8" height="8" x="28" y="26" fill="#4ce1a1" transform="translate(-2.182)"></rect>
    <rect width="8" height="8" x="54" y="26" fill="#7ad7ee" transform="translate(-2.182)"></rect>
    <path fill="#4bc3ef" d="M62,26C60.748,30.195 58.202,32.992 54,34L62,34L62,26Z" transform="translate(-2.182)"></path>
    <path fill="#3ec2a3" d="M62,26C60.748,30.195 58.202,32.992 54,34L62,34L62,26Z" transform="translate(-28.19)"></path>
    <path fill="#da4455" d="M62,26C60.748,30.195 58.202,32.992 54,34L62,34L62,26Z" transform="translate(-54.196)"></path>
    <path fill="#615260" d="M22,53L22,51L24.15,50.46C24.36,49.39 24.78,48.4 25.36,47.54L24.22,45.64L25.64,44.22L27.54,45.36C28.4,44.78 29.39,44.36 30.46,44.15L31,42L33,42L33.54,44.15C34.61,44.36 35.6,44.78 36.46,45.36L38.36,44.22L39.78,45.64L38.64,47.54C39.22,48.4 39.64,49.39 39.85,50.46L42,51L42,53L39.85,53.54C39.64,54.61 39.22,55.6 38.64,56.46L39.78,58.36L38.36,59.78L36.46,58.64C35.6,59.22 34.61,59.64 33.54,59.85L33,62L31,62L30.46,59.85C29.39,59.64 28.4,59.22 27.54,58.64L25.64,59.78L24.22,58.36L25.36,56.46C24.78,55.6 24.36,54.61 24.15,53.54L22,53ZM36.756,50.455L36.766,50.485C36.918,50.963 37,51.472 37,52C37,54.76 34.76,57 32,57C29.24,57 27,54.76 27,52C27,51.388 27.11,50.802 27.311,50.26C28.018,48.357 29.852,47 32,47C34.221,47 36.105,48.451 36.756,50.455Z" transform="translate(-2.182)"></path>
    <path fill="#4e3d4d" d="M36.147,44.223L37.565,45.64L36.425,47.54C37.005,48.4 37.425,49.39 37.635,50.46L39.785,51L39.785,53L37.635,53.54C37.425,54.61 37.005,55.6 36.425,56.46L37.565,58.36L36.147,59.777L34.252,58.64L34.248,58.642L34.245,58.64C33.385,59.22 32.395,59.64 31.325,59.85L30.785,62L28.792,62L28.252,59.85C27.182,59.64 26.192,59.22 25.332,58.64L25.328,58.642L25.325,58.64C26.614,58.254 28.218,57.875 29.711,56.999C29.738,57 29.765,57 29.792,57C32.551,57 34.792,54.76 34.792,52C34.792,51.472 34.71,50.963 34.558,50.485L34.548,50.455C34.435,50.106 34.283,49.773 34.099,49.461C34.254,48.271 34.31,46.914 34.245,45.36L34.248,45.358L34.252,45.36L36.147,44.223Z" transform="translate(.033)"></path>
    <path fill="#615260" fill-rule="nonzero" d="M35,17.42L35,21.09C35,21.59 34.59,22 34.09,22L29.9,22C29.4,22 28.99,21.59 28.99,21.09L28.99,17.42L35,17.42Z" transform="translate(-2.182)"></path>
    <path fill="#4e3d4d" fill-rule="nonzero" d="M32.721,17.42L32.721,21.09C32.721,21.59 32.311,22 31.811,22L29.811,22C30.311,22 30.721,21.59 30.721,21.09L30.721,17.42L32.721,17.42Z"></path>
    <path fill-rule="nonzero" d="M44.1 37L42 37C41.4 37 41 37.4 41 38 41 38.6 41.4 39 42 39L44.1 39C44.7 39 45.1 38.6 45.1 38 45.1 37.4 44.7 37 44.1 37zM43 10C43 10.6 43.4 11 44 11L46 11C46.6 11 47 10.6 47 10 47 9.4 46.6 9 46 9L44 9C43.4 9 43 9.4 43 10zM42.9 4.9L44.6 3.9C45.1 3.6 45.3 3 45 2.5 44.7 2 44.1 1.9 43.6 2.1L41.9 3.1C41.4 3.4 41.3 4 41.5 4.5 41.7 4.8 42.2 5.3 42.9 4.9zM19.4 3.9L21.1 4.9C21.3 5 22 5.2 22.5 4.5 22.8 4 22.6 3.4 22.1 3.1L20.4 2.1C19.9 1.9 19.3 2 19 2.5 18.7 3 18.9 3.6 19.4 3.9zM18 11L20 11C20.6 11 21 10.6 21 10 21 9.4 20.6 9 20 9L18 9C17.4 9 17 9.4 17 10 17 10.6 17.4 11 18 11zM21.1 15.1L19.4 16.1C18.9 16.4 18.8 17 19 17.5 19.4 18.2 20.2 18 20.4 17.9L22.1 16.9C22.6 16.6 22.7 16 22.5 15.5 22.2 15 21.6 14.9 21.1 15.1zM41.9 16.9L43.6 17.9C43.8 18 44.7 18.3 45 17.5 45.2 17 45.1 16.4 44.6 16.1L42.9 15.1C42.4 14.8 41.8 15 41.5 15.5 41.2 16 41.4 16.6 41.9 16.9z" transform="translate(-2.182)"></path>
    <path fill-rule="nonzero" d="M62,28.1C61.4,28.1 61,28.5 61,29.1L61,33L55,33L55,27L62,27C62.6,27 63,26.6 63,26C63,25.4 62.6,25 62,25L54,25C53.4,25 53,25.4 53,26L53,29L37,29L37,26C37,25.4 36.6,25 36,25L33,25L33,23L34.1,23C35.2,23 36,22.1 36,21.1L36,18.1C39.4,16.4 41.4,12.7 40.9,8.9C40.4,4.9 37.1,1.6 33,1.1C32.4,1 32,1.4 31.9,2C31.8,2.5 32.2,3 32.8,3.1C36,3.5 38.5,6 38.9,9.1C39.3,12.2 37.6,15.2 34.7,16.4L33,16.4L33,11L34,11C34.6,11 35,10.6 35,10C35,9.4 34.6,9 34,9L30,9C29.4,9 29,9.4 29,10C29,10.6 29.4,11 30,11L31,11L31,16.4L29.2,16.4C26.6,15.3 25,12.8 25,10C25,7.2 26.6,4.7 29.2,3.6C29.7,3.4 29.9,2.8 29.7,2.3C29.5,1.8 28.9,1.6 28.4,1.8C25.1,3.2 23,6.4 23,10C23,13.5 24.9,16.5 28,18.1L28,21.1C28,22.2 28.9,23 29.9,23L31,23L31,25L28,25C27.4,25 27,25.4 27,26L27,29L11,29L11,26C11,25.4 10.6,25 10,25L2,25C1.4,25 1,25.4 1,26L1,30.6C1,31.2 1.4,31.6 2,31.6C2.6,31.6 3,31.2 3,30.6L3,27L9,27L9,33L2,33C1.4,33 1,33.4 1,34C1,34.6 1.4,35 2,35L5,35L5,38C5,38.6 5.4,39 6,39L31,39L31,41C30.5,41 30.1,41.3 30,41.8L29.6,43.4C28.9,43.6 28.2,43.9 27.5,44.3L26.1,43.5C25.7,43.3 25.2,43.3 24.9,43.7L23.5,45.1C23.2,45.4 23.1,45.9 23.3,46.3L24.1,47.7C23.7,48.4 23.4,49.1 23.2,49.8L21.8,50C21.4,50.1 21,50.5 21,51L21,53C21,53.5 21.3,53.9 21.8,54L23.4,54.4C23.6,55.1 23.9,55.8 24.3,56.5L23.5,57.9C23.3,58.3 23.3,58.8 23.7,59.1L25.1,60.5C25.4,60.8 25.9,60.9 26.3,60.7L27.7,59.9C28.4,60.3 29.1,60.6 29.8,60.8L30.2,62.4C30.3,62.8 30.7,63.2 31.2,63.2L33.2,63.2C33.7,63.2 34.1,62.9 34.2,62.4L34.6,60.8C35.3,60.6 36,60.3 36.7,59.9L38.1,60.7C38.5,60.9 39,60.9 39.3,60.5L40.7,59.1C41,58.8 41.1,58.3 40.9,57.9L40.1,56.5C40.5,55.8 40.8,55.1 41,54.4L42.6,54C43,53.9 43.4,53.5 43.4,53L43.4,51C43.4,50.5 43.1,50.1 42.6,50L41,49.6C40.8,48.9 40.5,48.2 40.1,47.5L40.9,46.1C41.1,45.7 41.1,45.2 40.7,44.9L39.3,43.5C39,43.2 38.5,43.1 38.1,43.3L36.7,44.1C36,43.7 35.3,43.4 34.6,43.2L34,41.8C33.9,41.4 33.5,41 33,41L33,39L37.9,39C38.5,39 38.9,38.6 38.9,38C38.9,37.4 38.5,37 37.9,37L33,37L33,35L36,35C36.6,35 37,34.6 37,34L37,31L53,31L53,34C53,34.6 53.4,35 54,35L57,35L57,37L48,37C47.4,37 47,37.4 47,38C47,38.6 47.4,39 48,39L58,39C58.6,39 59,38.6 59,38L59,35L62,35C62.6,35 63,34.6 63,34L63,29.1C63,28.6 62.6,28.1 62,28.1ZM30,21L30,18.4L34,18.4L34,21L30,21ZM7,37L7,35L10,35C10.6,35 11,34.6 11,34L11,31L27,31L27,34C27,34.6 27.4,35 28,35L31,35L31,37L7,37ZM33.3,45.1C34.2,45.3 35.1,45.6 35.9,46.2C36.2,46.4 36.6,46.4 37,46.2L38.2,45.5L38.5,45.8L37.8,47C37.6,47.3 37.6,47.8 37.8,48.1C38.3,48.9 38.7,49.7 38.9,50.7C39,51.1 39.3,51.4 39.6,51.5L41,51.9L41,52.3L39.6,52.7C39.2,52.8 38.9,53.1 38.9,53.5C38.7,54.4 38.4,55.3 37.8,56.1C37.6,56.4 37.6,56.8 37.8,57.2L38.5,58.4L38.2,58.7L37,57.8C36.7,57.6 36.2,57.6 35.9,57.8C35.1,58.3 34.3,58.7 33.3,58.9C32.9,59 32.6,59.3 32.5,59.6L32.2,61L31.8,61L31.4,59.6C31.3,59.2 31,58.9 30.6,58.9C29.7,58.7 28.8,58.4 28,57.8C27.7,57.6 27.3,57.6 26.9,57.8L25.7,58.5L25.4,58.2L26.1,57C26.3,56.7 26.3,56.2 26.1,55.9C25.6,55.1 25.2,54.3 25,53.3C24.9,52.9 24.6,52.6 24.3,52.5L23,52.2L23,51.8L24.4,51.4C24.8,51.3 25.1,51 25.1,50.6C25.3,49.7 25.6,48.8 26.2,48C26.4,47.7 26.4,47.3 26.2,46.9L25.5,45.7L25.8,45.4L27,46.1C27.3,46.3 27.8,46.3 28.1,46.1C28.9,45.6 29.7,45.2 30.7,45C31.1,44.9 31.4,44.6 31.5,44.3L31.9,42.9L32.3,42.9L32.7,44.3C32.7,44.8 33,45.1 33.3,45.1ZM35,33L29,33L29,27L35,27L35,33Z" transform="translate(-2.182)"></path>
    <path d="M58.274,51.635C57.069,51.635 56.091,52.616 56.091,53.823C56.091,55.031 57.069,56.011 58.274,56.011C59.478,56.011 60.456,55.031 60.456,53.823C60.456,52.616 59.478,51.635 58.274,51.635ZM58.274,52.365C59.077,52.365 59.729,53.018 59.729,53.823C59.729,54.628 59.077,55.282 58.274,55.282C57.471,55.282 56.819,54.628 56.819,53.823C56.819,53.018 57.471,52.365 58.274,52.365Z" transform="matrix(2.74884 0 0 2.74249 -130.368 -95.61)"></path>
  </g>
</svg>
