<svg xmlns="http://www.w3.org/2000/svg" width="26" height="26" id="arrow">
  <path fill-rule="evenodd" d="M13 0A13 13 0 0 0 0 13a13 13 0 0 0 13 13 13 13 0 0 0 13-13A13 13 0 0 0 13 0zm2.521 6H19.5a.5.5 0 0 1 .5.5v4a.5.5 0 0 1-.854.352l-.914-.918-4.136 4.132a.5.5 0 0 1-.707 0L11.94 12.62a.5.5 0 0 1 0-.707l4.141-4.139-.916-.92a.5.5 0 0 1-.002-.7.499.499 0 0 1 .357-.153zm-4.683 7.213a.5.5 0 0 1 .361.146l1.45 1.448a.5.5 0 0 1 0 .707l-1.45 1.447a.5.5 0 0 1-.707 0l-1.449-1.447a.5.5 0 0 1 0-.707l1.45-1.448a.493.493 0 0 1 .345-.146zM7.94 16.107a.5.5 0 0 1 .362.147L9.752 17.7a.5.5 0 0 1 0 .705l-1.45 1.448a.5.5 0 0 1-.706 0l-1.45-1.448a.5.5 0 0 1 0-.705l1.45-1.447a.493.493 0 0 1 .345-.147z"></path>
</svg>
