<svg xmlns="http://www.w3.org/2000/svg" viewBox="0 0 64 64" id="performance">
  <path fill="#57565c" d="M60.82,56.83A2,2,0,0,1,58.83,59H5.17a2,2,0,0,1-1.99-2.17l1.67-20A1.994,1.994,0,0,1,6.84,35H57.16a1.994,1.994,0,0,1,1.99,1.83Z"></path>
  <path fill="#c6c5ca" d="M56.47,52.83A2,2,0,0,1,54.48,55H9.52a2,2,0,0,1-1.99-2.17l1-12A1.887,1.887,0,0,1,9,39.71H55a1.887,1.887,0,0,1,.47,1.12Z"></path>
  <path fill="#ffde55" d="M55,39.71V44a2.006,2.006,0,0,1-2,2H11a2.006,2.006,0,0,1-2-2V10a2.006,2.006,0,0,1,2-2H53a2.006,2.006,0,0,1,2,2V39.71Z"></path>
  <path fill="#2488ff" d="M44,30v4l-4.42.88L34,36l-.12-.04c1.38-4.12,3.03-10.13,3.11-15.5A10,10,0,0,1,44,30Z"></path>
  <path fill="#d80027" d="M37,20c0,.15,0,.3-.01.46-.08,5.37-1.73,11.38-3.11,15.5C32.87,38.99,32,41,32,41s-.87-2.01-1.88-5.04c-1.38-4.12-3.03-10.13-3.11-15.5C27,20.3,27,20.15,27,20a30.754,30.754,0,0,1,1.51-9.27A4.307,4.307,0,0,0,32,13a4.307,4.307,0,0,0,3.49-2.27A30.754,30.754,0,0,1,37,20Zm-3,3c0-2.76-.9-5-2-5s-2,2.24-2,5,.9,5,2,5S34,25.76,34,23Z"></path>
  <path fill="#2488ff" d="M34.51,8c.33.83.67,1.74.98,2.73A4.307,4.307,0,0,1,32,13a4.307,4.307,0,0,1-3.49-2.27c.31-.99.65-1.9.98-2.73A31.148,31.148,0,0,1,32,3,31.148,31.148,0,0,1,34.51,8Z"></path>
  <ellipse cx="32" cy="23" fill="#2488ff" rx="2" ry="5"></ellipse>
  <path fill="#2488ff" d="M30.12,35.96,30,36l-5.58-1.12L20,34V30a10,10,0,0,1,7.01-9.54C27.09,25.83,28.74,31.84,30.12,35.96Z"></path>
  <rect width="4" height="2" x="30" y="51"></rect>
  <path d="M60.147,36.753A3,3,0,0,0,57.16,34H56V10a3,3,0,0,0-3-3H35.18a31.713,31.713,0,0,0-2.344-4.549,1.04,1.04,0,0,0-1.672,0A31.713,31.713,0,0,0,28.82,7H11a3,3,0,0,0-3,3V34H6.84a3,3,0,0,0-2.986,2.747l-1.67,20A3,3,0,0,0,5.17,60H58.83a3,3,0,0,0,2.986-3.253ZM9.083,46.289A2.976,2.976,0,0,0,11,47H53a2.972,2.972,0,0,0,1.922-.716L55.57,54,8.437,54ZM37.937,21.911A8.95,8.95,0,0,1,43,30v3.181l-7.66,1.531A56.608,56.608,0,0,0,37.937,21.911Zm-11.874,0a56.608,56.608,0,0,0,2.6,12.8L21,33.181V30A8.95,8.95,0,0,1,26.063,21.911ZM28,20a28.825,28.825,0,0,1,.966-7.214,4.4,4.4,0,0,0,6.068,0A28.825,28.825,0,0,1,36,20c0,6.6-2.577,14.438-4,18.268C30.576,34.44,28,26.6,28,20ZM32,5a36.591,36.591,0,0,1,2.38,5.571A3.1,3.1,0,0,1,32,12a3.1,3.1,0,0,1-2.38-1.427A36.591,36.591,0,0,1,32,5ZM10,10a1,1,0,0,1,1-1H28.028a32.845,32.845,0,0,0-2.02,10.757A10.941,10.941,0,0,0,19,30v4a1,1,0,0,0,.8.98L29.375,36.9c.891,2.591,1.628,4.319,1.706,4.5a1,1,0,0,0,1.838,0c.078-.182.815-1.91,1.706-4.5L44.2,34.98A1,1,0,0,0,45,34V30a10.941,10.941,0,0,0-7.008-10.243A32.845,32.845,0,0,0,35.972,9H53a1,1,0,0,1,1,1V44a1,1,0,0,1-1,1H11a1,1,0,0,1-1-1ZM59.564,57.678A.984.984,0,0,1,58.83,58H5.17a1,1,0,0,1-.994-1.087L5.847,36.907A.994.994,0,0,1,6.84,36H8v2.821a1.944,1.944,0,0,0-.386,1.016l-1.17,14A2,2,0,0,0,8.43,56H55.57a1.995,1.995,0,0,0,1.986-2.163L56.388,39.853A1.984,1.984,0,0,0,56,38.822V36h1.16a1,1,0,0,1,.994.913l1.67,20A.991.991,0,0,1,59.564,57.678Z"></path>
  <path d="M35,23c0-2.89-.938-6-3-6s-3,3.11-3,6,.938,6,3,6S35,25.89,35,23Zm-3-3.975c.327.257,1,1.627,1,3.975s-.673,3.718-1,3.975c-.327-.257-1-1.627-1-3.975S31.673,19.282,32,19.025Z"></path>
  <rect width="2" height="2" x="42" y="37"></rect>
  <rect width="2" height="4" x="39" y="37"></rect>
  <rect width="2" height="2" x="36" y="37"></rect>
  <rect width="2" height="2" x="42" y="40"></rect>
  <rect width="2" height="2" x="39" y="42"></rect>
  <rect width="2" height="2" x="36" y="40"></rect>
  <rect width="2" height="2" x="26" y="37"></rect>
  <rect width="2" height="4" x="23" y="37"></rect>
  <rect width="2" height="2" x="20" y="37"></rect>
  <rect width="2" height="2" x="26" y="40"></rect>
  <rect width="2" height="2" x="23" y="42"></rect>
  <rect width="2" height="2" x="20" y="40"></rect>
</svg>
