<svg xmlns="http://www.w3.org/2000/svg" xml:space="preserve" id="seo-chart" x="0" y="0" enable-background="new 0 0 70 70" version="1.1" viewBox="0 0 70 70">
  <path fill="#8f90fb" d="M32.38,36.98v25.14H22.13V36.98c0-1.19,0.96-2.15,2.15-2.15h5.95C31.41,34.82,32.38,35.78,32.38,36.98z"></path>
  <path d="M32.38,62.61H22.13c-0.28,0-0.5-0.22-0.5-0.5V36.98c0-1.46,1.19-2.65,2.65-2.65h5.95c1.46,0,2.65,1.19,2.65,2.65v25.14
				C32.88,62.39,32.66,62.61,32.38,62.61z M22.63,61.61h9.25V36.98c0-0.91-0.74-1.65-1.65-1.65h-5.95c-0.91,0-1.65,0.74-1.65,1.65
				V61.61z"></path>
  <path fill="#5b52c5" d="M63.38,31.23v30.89H53.13V31.23c0-1.19,0.96-2.16,2.15-2.16h5.95C62.41,29.06,63.38,30.03,63.38,31.23z"></path>
  <path d="M63.38,62.61H53.13c-0.28,0-0.5-0.22-0.5-0.5V31.23c0-1.47,1.19-2.66,2.65-2.66h5.95c1.46,0,2.65,1.19,2.65,2.66v30.89
				C63.88,62.39,63.66,62.61,63.38,62.61z M53.63,61.61h9.25V31.23c0-0.92-0.74-1.66-1.65-1.66h-5.95c-0.91,0-1.65,0.75-1.65,1.66
				V61.61z"></path>
  <g>
    <path fill="#54e28e" d="M47.88,43.59v18.52H37.63V43.59c0-1.19,0.96-2.15,2.15-2.15h5.95C46.91,41.44,47.88,42.4,47.88,43.59z"></path>
    <path d="M47.88,62.61H37.63c-0.28,0-0.5-0.22-0.5-0.5V43.59c0-1.46,1.19-2.65,2.65-2.65h5.95c1.46,0,2.65,1.19,2.65,2.65v18.52
				C48.38,62.39,48.16,62.61,47.88,62.61z M38.13,61.61h9.25V43.59c0-0.91-0.74-1.65-1.65-1.65h-5.95c-0.91,0-1.65,0.74-1.65,1.65
				V61.61z"></path>
  </g>
  <g>
    <path fill="#fbe063" d="M16.88,49.34v12.77H6.63V49.34c0-1.19,0.96-2.15,2.15-2.15h5.95C15.91,47.19,16.88,48.15,16.88,49.34z"></path>
    <path d="M16.88,62.61H6.63c-0.28,0-0.5-0.22-0.5-0.5V49.34c0-1.46,1.19-2.65,2.65-2.65h5.95c1.46,0,2.65,1.19,2.65,2.65v12.77
				C17.38,62.39,17.16,62.61,16.88,62.61z M7.13,61.61h9.25V49.34c0-0.91-0.74-1.65-1.65-1.65H8.78c-0.91,0-1.65,0.74-1.65,1.65
				V61.61z"></path>
  </g>
  <g>
    <path fill="#495e66" d="M67,64.07c0,0.78-0.32,1.49-0.83,2s-1.22,0.83-2,0.83H5.83C4.27,66.9,3,65.63,3,64.07
			c0-0.78,0.32-1.49,0.83-2c0.51-0.52,1.22-0.83,2-0.83h58.34C65.73,61.24,67,62.5,67,64.07z"></path>
    <path d="M64.17,67.4H5.83c-1.84,0-3.33-1.49-3.33-3.33c0-0.89,0.35-1.73,0.98-2.35c0.62-0.63,1.45-0.98,2.35-0.98h58.34
			c1.84,0,3.33,1.49,3.33,3.33c0,0.89-0.35,1.72-0.98,2.35S65.06,67.4,64.17,67.4z M5.83,61.74c-0.63,0-1.21,0.24-1.64,0.68
			c-0.45,0.44-0.69,1.03-0.69,1.65c0,1.29,1.04,2.33,2.33,2.33h58.34c0.62,0,1.21-0.24,1.65-0.68s0.68-1.03,0.68-1.65
			c0-1.29-1.04-2.33-2.33-2.33H5.83z"></path>
  </g>
  <g>
    <path fill="#f9a41a" d="M23.9,24.77h0.83c0.38,0,0.73,0.19,0.94,0.52l0.18,0.29h5.03l0.19-0.29c0.2-0.32,0.56-0.52,0.94-0.52h9.58
					c2.49,0,4.51-2.02,4.51-4.51V7.61c0-2.49-2.02-4.51-4.51-4.51H23.9c-2.5,0-4.51,2.02-4.51,4.51v12.65
					C19.39,22.75,21.41,24.77,23.9,24.77z"></path>
    <path d="M30.88,26.08h-5.03c-0.17,0-0.33-0.09-0.42-0.24l-0.18-0.29c-0.11-0.18-0.3-0.28-0.51-0.28H23.9c-2.76,0-5-2.25-5-5.01
					V7.61c0-2.76,2.25-5.01,5.01-5.01h17.67c2.76,0,5,2.25,5,5v12.66c0,2.76-2.25,5.01-5,5.01H32c-0.21,0-0.4,0.1-0.51,0.28
					l-0.19,0.3C31.21,25.99,31.05,26.08,30.88,26.08z M26.12,25.08h4.48l0.04-0.06c0.29-0.47,0.8-0.75,1.36-0.75h9.58
					c2.21,0,4-1.8,4-4.01V7.6c0-2.21-1.8-4-4-4H23.9c-2.21,0-4.01,1.8-4.01,4.01v12.65c0,2.21,1.8,4.01,4,4.01h0.83
					c0.56,0,1.07,0.28,1.36,0.75L26.12,25.08z"></path>
    <path fill="#fbe063" d="M49.08,10.61v12.66c0,2.49-2.02,4.51-4.51,4.51H35c-0.38,0-0.73,0.19-0.94,0.52l-1.77,2.82
					c-0.43,0.69-1.44,0.69-1.87,0l-1.76-2.82c-0.2-0.32-0.56-0.52-0.94-0.52H26.9c-2.49,0-4.51-2.02-4.51-4.51V10.61
					c0-2.5,2.02-4.51,4.51-4.51h17.67C47.07,6.1,49.08,8.12,49.08,10.61z"></path>
    <path d="M31.36,32.12c-0.55,0-1.06-0.28-1.36-0.75l-1.76-2.82c-0.11-0.17-0.3-0.28-0.51-0.28H26.9c-2.76,0-5.01-2.25-5.01-5.01
					V10.61c0-2.76,2.25-5.01,5.01-5.01h17.67c2.76,0,5.01,2.25,5.01,5.01v12.66c0,2.76-2.25,5.01-5.01,5.01H35
					c-0.21,0-0.4,0.11-0.51,0.28l-1.77,2.82C32.42,31.84,31.91,32.12,31.36,32.12z M26.9,6.6c-2.21,0-4.01,1.8-4.01,4.01v12.65
					c0,2.21,1.8,4.01,4.01,4.01h0.83c0.56,0,1.07,0.28,1.36,0.75l1.76,2.82c0.22,0.36,0.8,0.36,1.02,0l1.77-2.82
					c0.29-0.47,0.8-0.75,1.36-0.75h9.58c2.21,0,4.01-1.8,4.01-4.01V10.61c0-2.21-1.8-4.01-4.01-4.01H26.9z"></path>
    <g>
      <path d="M30.73,17.25c-0.24-0.17-0.55-0.3-0.97-0.4l-0.8-0.18c-0.65-0.15-0.9-0.24-0.99-0.29c-0.17-0.09-0.25-0.23-0.25-0.44
					c0-0.2,0.08-0.37,0.24-0.53c0.16-0.15,0.45-0.23,0.85-0.23c0.5,0,0.85,0.13,1.05,0.37c0.1,0.13,0.18,0.34,0.21,0.61l0.02,0.17
					h1.11v-0.2c0-0.71-0.24-1.23-0.72-1.56c-0.45-0.31-1.01-0.47-1.65-0.47c-0.7,0-1.26,0.19-1.65,0.55c-0.4,0.37-0.6,0.85-0.6,1.42
					c0,0.55,0.21,0.96,0.64,1.24c0.23,0.15,0.61,0.29,1.14,0.41l0.78,0.18c0.4,0.09,0.69,0.2,0.86,0.31
					c0.14,0.09,0.21,0.26,0.21,0.5c0,0.21-0.06,0.5-0.56,0.68c-0.22,0.08-0.46,0.11-0.73,0.11c-0.59,0-0.98-0.16-1.2-0.48
					c-0.11-0.17-0.18-0.41-0.2-0.69l-0.01-0.19h-1.12l0,0.2c-0.01,0.68,0.21,1.22,0.66,1.62c0.44,0.4,1.05,0.6,1.81,0.6
					c0.65,0,1.22-0.15,1.71-0.44c0.53-0.31,0.79-0.83,0.79-1.54C31.36,18,31.15,17.56,30.73,17.25z"></path>
      <polygon points="34.23 17.75 37.4 17.75 37.4 16.69 34.23 16.69 34.23 15.35 37.66 15.35 37.66 14.24 33.07 14.24 33.07 20.39 37.72 20.39 37.72 19.3 34.23 19.3"></polygon>
      <path d="M44.48,15.14c-0.52-0.7-1.34-1.06-2.41-1.06c-1.03,0-1.83,0.39-2.36,1.15c-0.41,0.58-0.61,1.29-0.61,2.11
					c0,0.9,0.24,1.66,0.73,2.27c0.54,0.63,1.29,0.94,2.23,0.94c1.01,0,1.8-0.36,2.34-1.08c0.46-0.6,0.69-1.36,0.69-2.26
					C45.09,16.38,44.89,15.69,44.48,15.14z M43.9,17.23c0,0.6-0.14,1.13-0.43,1.59c-0.27,0.43-0.7,0.64-1.32,0.64
					c-0.66,0-1.12-0.19-1.4-0.57c-0.29-0.4-0.44-0.9-0.44-1.49c0-0.74,0.17-1.3,0.51-1.67c0.34-0.37,0.77-0.55,1.31-0.55
					c0.56,0,0.98,0.18,1.3,0.55C43.73,16.1,43.9,16.6,43.9,17.23z"></path>
    </g>
  </g>
</svg>
